PathFileType	3	(X/Y/Z)	dance_move_1__fused_aligned.trc
DataRate	CameraRate	NumFrames	NumMarkers	Units	OrigDataRate	OrigDataStartFrame	OrigNumFrames
100.0	100.0	10	19	mm	100.0	28	890
Frame#	Time	pelvis			neck			head			hip_left			hip_right			knee_left			knee_right			ankle_left			ankle_right			heel_left			heel_right			toe_left			toe_right			shoulder_left			shoulder_right			elbow_left			elbow_right			wrist_left			wrist_right			
		X1	Y1	Z1	X2	Y2	Z2	X3	Y3	Z3	X4	Y4	Z4	X5	Y5	Z5	X6	Y6	Z6	X7	Y7	Z7	X8	Y8	Z8	X9	Y9	Z9	X10	Y10	Z10	X11	Y11	Z11	X12	Y12	Z12	X13	Y13	Z13	X14	Y14	Z14	X15	Y15	Z15	X16	Y16	Z16	X17	Y17	Z17	X18	Y18	Z18	X19	Y19	Z19	
28	0.27000	48.516033	943.318023	-55.065050	56.614202	1530.417880	-95.319795	49.463223	1682.908652	-199.648654	-28.867264	943.808715	-50.306758	125.899486	942.827322	-59.823209	-98.823213	517.219770	-18.642217	167.012297	510.505336	-63.709440	-130.967430	127.468232	106.655635	192.398950	112.959589	33.563599	-123.871854	83.776419	145.742954	190.663539	69.069687	73.774263	-182.239744	54.296624	-67.677862	211.648268	34.497858	-146.656561	-120.427834	1481.227734	-49.343203	238.629325	1466.798786	-76.895583	-293.655687	1239.693403	-127.510004	321.272699	1219.115407	-200.374163	-395.857194	1314.083743	-368.794618	245.235568	1372.624844	-375.476556
29	0.28000	49.034916	943.405165	-56.140487	57.384272	1530.547632	-95.471035	50.153242	1682.957308	-200.106293	-28.378508	943.919276	-51.281285	126.448481	942.891046	-60.999569	-97.512579	517.281732	-18.881237	167.799730	510.755500	-64.435130	-129.593295	127.516534	106.091946	193.522503	113.242423	32.477704	-122.521082	83.828019	145.215506	191.820359	69.367964	72.717810	-180.733524	54.216564	-68.373074	212.620857	34.622744	-147.780952	-119.881700	1481.817312	-49.722628	239.615380	1466.545285	-77.934558	-289.791647	1239.048671	-128.622157	319.199135	1217.087708	-200.494516	-383.387047	1314.264963	-370.508840	238.359234	1368.424619	-376.656064
30	0.29000	49.553799	943.492308	-57.215924	58.154342	1530.677384	-95.622276	50.843260	1683.005963	-200.563931	-27.889752	944.029838	-52.255813	126.997476	942.954769	-62.175929	-96.201944	517.343693	-19.120256	168.587163	511.005664	-65.160821	-128.219161	127.564836	105.528257	194.646056	113.525257	31.391809	-121.170309	83.879620	144.688058	192.977179	69.666241	71.661358	-179.227304	54.136505	-69.068286	213.593447	34.747630	-148.905344	-119.335566	1482.406890	-50.102052	240.601436	1466.291783	-78.973533	-285.927608	1238.403938	-129.734309	317.125571	1215.060009	-200.614868	-370.916899	1314.446183	-372.223062	231.482900	1364.224393	-377.835571
31	0.30000	50.072682	943.579450	-58.291361	58.924412	1530.807136	-95.773517	51.533278	1683.054619	-201.021569	-27.400996	944.140400	-53.230340	127.546471	943.018493	-63.352289	-94.891309	517.405655	-19.359276	169.374595	511.255828	-65.886512	-126.845026	127.613139	104.964568	195.769608	113.808091	30.305915	-119.819536	83.931221	144.160610	194.133999	69.964517	70.604905	-177.721084	54.056445	-69.763498	214.566036	34.872516	-150.029735	-118.789431	1482.996468	-50.481476	241.587492	1466.038282	-80.012508	-282.063569	1237.759205	-130.846462	315.052006	1213.032310	-200.735221	-358.446751	1314.627403	-373.937285	224.606566	1360.024168	-379.015078
32	0.31000	50.591565	943.666592	-59.366798	59.694481	1530.936888	-95.924757	52.223297	1683.103274	-201.479207	-26.912240	944.250962	-54.204867	128.095466	943.082217	-64.528649	-93.580674	517.467616	-19.598295	170.162028	511.505991	-66.612202	-125.470891	127.661441	104.400879	196.893161	114.090924	29.220020	-118.468763	83.982822	143.633162	195.290819	70.262794	69.548452	-176.214864	53.976385	-70.458710	215.538626	34.997401	-151.154127	-118.243297	1483.586046	-50.860901	242.573548	1465.784780	-81.051483	-278.199530	1237.114472	-131.958615	312.978442	1211.004611	-200.855573	-345.976604	1314.808623	-375.651507	217.730232	1355.823942	-380.194586
33	0.32000	51.110448	943.753735	-60.442235	60.464551	1531.066640	-96.075998	52.913315	1683.151930	-201.936845	-26.423484	944.361524	-55.179395	128.644461	943.145940	-65.705009	-92.270039	517.529578	-19.837315	170.949461	511.756155	-67.337893	-124.096757	127.709743	103.837191	198.016714	114.373758	28.134125	-117.117991	84.034423	143.105714	196.447639	70.561071	68.491999	-174.708644	53.896326	-71.153922	216.511215	35.122287	-152.278518	-117.697162	1484.175624	-51.240325	243.559604	1465.531279	-82.090458	-274.335491	1236.469740	-133.070767	310.904878	1208.976912	-200.975926	-333.506456	1314.989843	-377.365729	210.853898	1351.623717	-381.374093
34	0.33000	51.629331	943.840877	-61.517672	61.234621	1531.196392	-96.227239	53.603334	1683.200585	-202.394484	-25.934729	944.472086	-56.153922	129.193456	943.209664	-66.881369	-90.959404	517.591539	-20.076334	171.736894	512.006319	-68.063584	-122.722622	127.758045	103.273502	199.140267	114.656592	27.048230	-115.767218	84.086023	142.578266	197.604459	70.859347	67.435546	-173.202424	53.816266	-71.849134	217.483805	35.247173	-153.402910	-117.151028	1484.765202	-51.619749	244.545660	1465.277778	-83.129433	-270.471451	1235.825007	-134.182920	308.831313	1206.949214	-201.096278	-321.036309	1315.171063	-379.079951	203.977564	1347.423492	-382.553601
35	0.34000	52.148215	943.928019	-62.593109	62.004691	1531.326145	-96.378479	54.293352	1683.249241	-202.852122	-25.445973	944.582648	-57.128450	129.742451	943.273388	-68.057729	-89.648769	517.653501	-20.315353	172.524327	512.256483	-68.789274	-121.348487	127.806347	102.709813	200.263819	114.939426	25.962335	-114.416445	84.137624	142.050818	198.761280	71.157624	66.379093	-171.696204	53.736206	-72.544346	218.456394	35.372059	-154.527301	-116.604893	1485.354780	-51.999174	245.531715	1465.024276	-84.168408	-266.607412	1235.180274	-135.295072	306.757749	1204.921515	-201.216631	-308.566161	1315.352283	-380.794173	197.101230	1343.223266	-383.733108
36	0.35000	52.667098	944.015161	-63.668546	62.774761	1531.455897	-96.529720	54.983370	1683.297896	-203.309760	-24.957217	944.693210	-58.102977	130.291446	943.337111	-69.234090	-88.338134	517.715462	-20.554373	173.311760	512.506647	-69.514965	-119.974353	127.854649	102.146124	201.387372	115.222259	24.876440	-113.065673	84.189225	141.523370	199.918100	71.455901	65.322640	-170.189984	53.656146	-73.239558	219.428984	35.496945	-155.651692	-116.058759	1485.944358	-52.378598	246.517771	1464.770775	-85.207383	-262.743373	1234.535541	-136.407225	304.684185	1202.893816	-201.336983	-296.096014	1315.533504	-382.508395	190.224895	1339.023041	-384.912616
37	0.36000	53.185981	944.102304	-64.743983	63.544830	1531.585649	-96.680961	55.673389	1683.346552	-203.767398	-24.468461	944.803772	-59.077504	130.840441	943.400835	-70.410450	-87.027500	517.777424	-20.793392	174.099193	512.756811	-70.240656	-118.600218	127.902952	101.582436	202.510925	115.505093	23.790546	-111.714900	84.240826	140.995922	201.074920	71.754178	64.266188	-168.683764	53.576087	-73.934770	220.401574	35.621830	-156.776084	-115.512624	1486.533936	-52.758022	247.503827	1464.517273	-86.246358	-258.879334	1233.890809	-137.519377	302.610620	1200.866117	-201.457335	-283.625866	1315.714724	-384.222617	183.348561	1334.822815	-386.092123
